# xmcd
#
# Track frame offsets: 
#        150
#        18140
#        31060
#        46954
#        64193
#        80609
#        95527
#        107952
#        118809
#        138413
#        156160
#        173528
#        191801
#        207066
#
# Disc length: 3031 seconds
#
# Revision: 1
# Processed by: cddbd v1.5.2PL0 Copyright (c) Steve Scherf et al.
# Submitted via: ExactAudioCopy v1.0b3
#
DISCID=b70bd50e
DTITLE=Alan Jackson - Playlist: The Very Best of Alan Jackson
DYEAR=2012
DGENRE=Country
TTITLE0=Where I Come From
TTITLE1=It Must Be Love
TTITLE2=Never Loved Before (with Martina McBride)
TTITLE3=Livin' On Love
TTITLE4=Here in the Real World
TTITLE5=Someday
TTITLE6=Dallas
TTITLE7=She's Got the Rhythm (and I Got the Blues)
TTITLE8=Gone Country
TTITLE9=There Goes
TTITLE10=It's Five O'Clock Somewhere (with Jimmy Buffett)
TTITLE11=Drive (For Daddy Gene)
TTITLE12=Monday Morning Church
TTITLE13=Remember When
EXTD=
EXTT0=
EXTT1=
EXTT2=
EXTT3=
EXTT4=
EXTT5=
EXTT6=
EXTT7=
EXTT8=
EXTT9=
EXTT10=
EXTT11=
EXTT12=
EXTT13=
PLAYORDER=
